<svg width="40" height="40" viewBox="0 0 512 512" style="color:currentColor" xmlns="http://www.w3.org/2000/svg" class="h-full w-full"><rect width="512" height="512" x="0" y="0" rx="30" fill="transparent" stroke="transparent" stroke-width="0" stroke-opacity="100%" paint-order="stroke"></rect><svg width="256px" height="256px" viewBox="0 0 256 256" fill="currentColor" x="128" y="128" role="img" style="display:inline-block;vertical-align:middle" xmlns="http://www.w3.org/2000/svg"><g fill="currentColor"><path fill="currentColor" d="M216 76h-28V48a20 20 0 0 0-20-20H40a20 20 0 0 0-20 20v128a12 12 0 0 0 19.54 9.33l28.46-23V184a20 20 0 0 0 20 20h92.17l36.29 29.33A12 12 0 0 0 236 224V96a20 20 0 0 0-20-20ZM44 150.87V52h120v80H71.58a12 12 0 0 0-7.58 2.67Zm168 48l-20-16.2a12 12 0 0 0-7.54-2.67H92v-24h76a20 20 0 0 0 20-20v-36h24Z"/></g></svg></svg>