<svg width="40" height="40" viewBox="0 0 512 512" style="color:currentColor" xmlns="http://www.w3.org/2000/svg" class="h-full w-full"><rect width="512" height="512" x="0" y="0" rx="30" fill="transparent" stroke="transparent" stroke-width="0" stroke-opacity="100%" paint-order="stroke"></rect><svg width="256px" height="256px" viewBox="0 0 36 36" fill="currentColor" x="128" y="128" role="img" style="display:inline-block;vertical-align:middle" xmlns="http://www.w3.org/2000/svg"><g fill="currentColor"><path fill="currentColor" d="M31.43 16H10v2h21.43a1 1 0 0 0 0-2Z" class="clr-i-outline clr-i-outline-path-1"/><path fill="currentColor" d="M31.43 24H10v2h21.43a1 1 0 0 0 0-2Z" class="clr-i-outline clr-i-outline-path-2"/><path fill="currentColor" d="M15.45 10h16a1 1 0 0 0 0-2h-14Z" class="clr-i-outline clr-i-outline-path-3"/><path fill="currentColor" d="M17.5 3.42a1.09 1.09 0 0 0-1.55 0l-8.06 8.06l-3.38-3.64a1.1 1.1 0 1 0-1.61 1.5l4.94 5.3L17.5 5a1.1 1.1 0 0 0 0-1.58Z" class="clr-i-outline clr-i-outline-path-4"/><path fill="none" d="M0 0h36v36H0z"/></g></svg></svg>